<mxfile host="app.diagrams.net" modified="2022-06-05T21:26:19.848Z" agent="5.0 (Windows)" etag="5CEIGDLgq7a0R4oW2FJx" version="19.0.0" type="github">
  <diagram id="C5RBs43oDa-KdzZeNtuy" name="Page-1">
    <mxGraphModel dx="1718" dy="943" grid="1" gridSize="10" guides="1" tooltips="1" connect="1" arrows="1" fold="1" page="1" pageScale="1" pageWidth="1920" pageHeight="1200" background="#DAD2D8" math="0" shadow="0">
      <root>
        <mxCell id="WIyWlLk6GJQsqaUBKTNV-0" />
        <mxCell id="WIyWlLk6GJQsqaUBKTNV-1" parent="WIyWlLk6GJQsqaUBKTNV-0" />
        <mxCell id="Hhn4acZgvtAK7c2JBdQD-0" style="edgeStyle=orthogonalEdgeStyle;rounded=1;sketch=0;orthogonalLoop=1;jettySize=auto;html=1;exitX=0.5;exitY=1;exitDx=0;exitDy=0;entryX=0.5;entryY=0;entryDx=0;entryDy=0;fontColor=#143642;strokeColor=#A8201A;fillColor=#FAE5C7;labelBackgroundColor=#DAD2D8;" edge="1" parent="WIyWlLk6GJQsqaUBKTNV-1" source="Hhn4acZgvtAK7c2JBdQD-50" target="Hhn4acZgvtAK7c2JBdQD-3">
          <mxGeometry relative="1" as="geometry">
            <mxPoint x="110" y="136" as="sourcePoint" />
          </mxGeometry>
        </mxCell>
        <mxCell id="Hhn4acZgvtAK7c2JBdQD-1" value="Insert product" style="fillColor=#FAE5C7;strokeColor=none;shadow=1;fontSize=14;align=left;spacingLeft=50;fontColor=#143642;rounded=1;sketch=0;" vertex="1" parent="WIyWlLk6GJQsqaUBKTNV-1">
          <mxGeometry x="100" y="26" width="186" height="40" as="geometry" />
        </mxCell>
        <mxCell id="Hhn4acZgvtAK7c2JBdQD-2" value="" style="edgeStyle=orthogonalEdgeStyle;rounded=1;sketch=0;orthogonalLoop=1;jettySize=auto;html=1;fontColor=#143642;strokeColor=#A8201A;fillColor=#FAE5C7;labelBackgroundColor=#DAD2D8;" edge="1" parent="WIyWlLk6GJQsqaUBKTNV-1" source="Hhn4acZgvtAK7c2JBdQD-3" target="Hhn4acZgvtAK7c2JBdQD-5">
          <mxGeometry relative="1" as="geometry" />
        </mxCell>
        <mxCell id="Hhn4acZgvtAK7c2JBdQD-3" value="&lt;div&gt;displayName&lt;/div&gt;&lt;div&gt;price&lt;/div&gt;&lt;div&gt;rules&lt;/div&gt;&lt;div&gt;category&lt;br&gt;&lt;/div&gt;" style="shape=parallelogram;perimeter=parallelogramPerimeter;whiteSpace=wrap;html=1;fixedSize=1;rounded=1;sketch=0;fontColor=#143642;strokeColor=#0F8B8D;fillColor=#FAE5C7;" vertex="1" parent="WIyWlLk6GJQsqaUBKTNV-1">
          <mxGeometry x="37.5" y="175" width="145" height="103" as="geometry" />
        </mxCell>
        <mxCell id="Hhn4acZgvtAK7c2JBdQD-4" value="" style="edgeStyle=orthogonalEdgeStyle;rounded=1;sketch=0;orthogonalLoop=1;jettySize=auto;html=1;fontColor=#143642;strokeColor=#A8201A;fillColor=#FAE5C7;labelBackgroundColor=#DAD2D8;" edge="1" parent="WIyWlLk6GJQsqaUBKTNV-1" source="Hhn4acZgvtAK7c2JBdQD-5" target="Hhn4acZgvtAK7c2JBdQD-10">
          <mxGeometry relative="1" as="geometry" />
        </mxCell>
        <mxCell id="Hhn4acZgvtAK7c2JBdQD-5" value="Validate fields" style="whiteSpace=wrap;html=1;fillColor=#FAE5C7;strokeColor=#0F8B8D;fontColor=#143642;rounded=1;sketch=0;" vertex="1" parent="WIyWlLk6GJQsqaUBKTNV-1">
          <mxGeometry x="50" y="320" width="120" height="40" as="geometry" />
        </mxCell>
        <mxCell id="Hhn4acZgvtAK7c2JBdQD-6" value="" style="edgeStyle=orthogonalEdgeStyle;rounded=1;sketch=0;orthogonalLoop=1;jettySize=auto;html=1;fontColor=#143642;strokeColor=#A8201A;fillColor=#FAE5C7;labelBackgroundColor=#DAD2D8;" edge="1" parent="WIyWlLk6GJQsqaUBKTNV-1" source="Hhn4acZgvtAK7c2JBdQD-10" target="Hhn4acZgvtAK7c2JBdQD-12">
          <mxGeometry relative="1" as="geometry" />
        </mxCell>
        <mxCell id="Hhn4acZgvtAK7c2JBdQD-7" value="Yes" style="edgeLabel;align=center;verticalAlign=middle;resizable=0;points=[];fontColor=#143642;labelBackgroundColor=none;html=1;" vertex="1" connectable="0" parent="Hhn4acZgvtAK7c2JBdQD-6">
          <mxGeometry x="-0.2923" y="-1" relative="1" as="geometry">
            <mxPoint x="6" y="9" as="offset" />
          </mxGeometry>
        </mxCell>
        <mxCell id="Hhn4acZgvtAK7c2JBdQD-8" value="" style="edgeStyle=orthogonalEdgeStyle;rounded=1;sketch=0;orthogonalLoop=1;jettySize=auto;html=1;fontColor=#143642;strokeColor=#A8201A;fillColor=#FAE5C7;labelBackgroundColor=#DAD2D8;" edge="1" parent="WIyWlLk6GJQsqaUBKTNV-1" source="Hhn4acZgvtAK7c2JBdQD-10" target="Hhn4acZgvtAK7c2JBdQD-13">
          <mxGeometry relative="1" as="geometry" />
        </mxCell>
        <mxCell id="Hhn4acZgvtAK7c2JBdQD-9" value="No" style="edgeLabel;html=1;align=center;verticalAlign=middle;resizable=0;points=[];fontColor=#143642;labelBackgroundColor=none;" vertex="1" connectable="0" parent="Hhn4acZgvtAK7c2JBdQD-8">
          <mxGeometry x="-0.1308" y="-1" relative="1" as="geometry">
            <mxPoint x="11" as="offset" />
          </mxGeometry>
        </mxCell>
        <mxCell id="Hhn4acZgvtAK7c2JBdQD-10" value="Is there validation errors?" style="rhombus;whiteSpace=wrap;html=1;fillColor=#FAE5C7;strokeColor=#0F8B8D;fontColor=#143642;rounded=1;sketch=0;" vertex="1" parent="WIyWlLk6GJQsqaUBKTNV-1">
          <mxGeometry x="65" y="400" width="90" height="90" as="geometry" />
        </mxCell>
        <mxCell id="Hhn4acZgvtAK7c2JBdQD-11" style="edgeStyle=orthogonalEdgeStyle;rounded=1;sketch=0;orthogonalLoop=1;jettySize=auto;html=1;fontColor=#143642;strokeColor=#A8201A;fillColor=#FAE5C7;labelBackgroundColor=#DAD2D8;entryX=1.001;entryY=0.462;entryDx=0;entryDy=0;entryPerimeter=0;" edge="1" parent="WIyWlLk6GJQsqaUBKTNV-1" source="Hhn4acZgvtAK7c2JBdQD-12" target="Hhn4acZgvtAK7c2JBdQD-50">
          <mxGeometry relative="1" as="geometry">
            <mxPoint x="170" y="110" as="targetPoint" />
            <Array as="points">
              <mxPoint x="360" y="445" />
              <mxPoint x="360" y="109" />
            </Array>
          </mxGeometry>
        </mxCell>
        <mxCell id="Hhn4acZgvtAK7c2JBdQD-12" value="Show warning" style="whiteSpace=wrap;html=1;fillColor=#FAE5C7;strokeColor=#0F8B8D;fontColor=#143642;rounded=1;sketch=0;" vertex="1" parent="WIyWlLk6GJQsqaUBKTNV-1">
          <mxGeometry x="220" y="425" width="120" height="40" as="geometry" />
        </mxCell>
        <mxCell id="Hhn4acZgvtAK7c2JBdQD-13" value="POST " style="whiteSpace=wrap;html=1;fillColor=#FAE5C7;strokeColor=#0F8B8D;fontColor=#143642;rounded=1;sketch=0;" vertex="1" parent="WIyWlLk6GJQsqaUBKTNV-1">
          <mxGeometry x="50" y="540" width="120" height="40" as="geometry" />
        </mxCell>
        <mxCell id="Hhn4acZgvtAK7c2JBdQD-14" value="" style="edgeStyle=orthogonalEdgeStyle;rounded=1;sketch=0;orthogonalLoop=1;jettySize=auto;html=1;fontColor=#143642;strokeColor=#A8201A;fillColor=#FAE5C7;labelBackgroundColor=#DAD2D8;exitX=0.5;exitY=1;exitDx=0;exitDy=0;" edge="1" parent="WIyWlLk6GJQsqaUBKTNV-1" source="Hhn4acZgvtAK7c2JBdQD-13" target="Hhn4acZgvtAK7c2JBdQD-19">
          <mxGeometry relative="1" as="geometry">
            <mxPoint x="110" y="590" as="sourcePoint" />
          </mxGeometry>
        </mxCell>
        <mxCell id="Hhn4acZgvtAK7c2JBdQD-15" value="" style="edgeStyle=orthogonalEdgeStyle;rounded=1;sketch=0;orthogonalLoop=1;jettySize=auto;html=1;fontColor=#143642;strokeColor=#A8201A;fillColor=#FAE5C7;labelBackgroundColor=#DAD2D8;" edge="1" parent="WIyWlLk6GJQsqaUBKTNV-1" source="Hhn4acZgvtAK7c2JBdQD-19">
          <mxGeometry relative="1" as="geometry">
            <mxPoint x="220" y="665" as="targetPoint" />
          </mxGeometry>
        </mxCell>
        <mxCell id="Hhn4acZgvtAK7c2JBdQD-16" value="Yes" style="edgeLabel;align=center;verticalAlign=middle;resizable=0;points=[];fontColor=#143642;labelBackgroundColor=none;html=1;" vertex="1" connectable="0" parent="Hhn4acZgvtAK7c2JBdQD-15">
          <mxGeometry x="-0.2923" y="-1" relative="1" as="geometry">
            <mxPoint x="6" y="9" as="offset" />
          </mxGeometry>
        </mxCell>
        <mxCell id="Hhn4acZgvtAK7c2JBdQD-17" value="" style="edgeStyle=orthogonalEdgeStyle;rounded=1;sketch=0;orthogonalLoop=1;jettySize=auto;html=1;fontColor=#143642;strokeColor=#A8201A;fillColor=#FAE5C7;labelBackgroundColor=#DAD2D8;" edge="1" parent="WIyWlLk6GJQsqaUBKTNV-1" source="Hhn4acZgvtAK7c2JBdQD-19">
          <mxGeometry relative="1" as="geometry">
            <mxPoint x="110" y="760" as="targetPoint" />
          </mxGeometry>
        </mxCell>
        <mxCell id="Hhn4acZgvtAK7c2JBdQD-18" value="No" style="edgeLabel;html=1;align=center;verticalAlign=middle;resizable=0;points=[];fontColor=#143642;labelBackgroundColor=none;" vertex="1" connectable="0" parent="Hhn4acZgvtAK7c2JBdQD-17">
          <mxGeometry x="-0.1308" y="-1" relative="1" as="geometry">
            <mxPoint x="11" as="offset" />
          </mxGeometry>
        </mxCell>
        <mxCell id="Hhn4acZgvtAK7c2JBdQD-19" value="Is there errors?" style="rhombus;whiteSpace=wrap;html=1;fillColor=#FAE5C7;strokeColor=#0F8B8D;fontColor=#143642;rounded=1;sketch=0;" vertex="1" parent="WIyWlLk6GJQsqaUBKTNV-1">
          <mxGeometry x="52.5" y="620" width="115" height="90" as="geometry" />
        </mxCell>
        <mxCell id="Hhn4acZgvtAK7c2JBdQD-20" style="edgeStyle=orthogonalEdgeStyle;curved=0;rounded=1;sketch=0;orthogonalLoop=1;jettySize=auto;html=1;fontColor=#143642;strokeColor=#A8201A;fillColor=#FAE5C7;entryX=1.001;entryY=0.472;entryDx=0;entryDy=0;entryPerimeter=0;" edge="1" parent="WIyWlLk6GJQsqaUBKTNV-1" source="Hhn4acZgvtAK7c2JBdQD-21" target="Hhn4acZgvtAK7c2JBdQD-50">
          <mxGeometry relative="1" as="geometry">
            <mxPoint x="150" y="110" as="targetPoint" />
            <Array as="points">
              <mxPoint x="360" y="665" />
              <mxPoint x="360" y="110" />
            </Array>
          </mxGeometry>
        </mxCell>
        <mxCell id="Hhn4acZgvtAK7c2JBdQD-21" value="Show warning" style="whiteSpace=wrap;html=1;fillColor=#FAE5C7;strokeColor=#0F8B8D;fontColor=#143642;rounded=1;sketch=0;" vertex="1" parent="WIyWlLk6GJQsqaUBKTNV-1">
          <mxGeometry x="220" y="645" width="120" height="40" as="geometry" />
        </mxCell>
        <mxCell id="Hhn4acZgvtAK7c2JBdQD-22" value="Let user know" style="whiteSpace=wrap;html=1;fillColor=#FAE5C7;strokeColor=#0F8B8D;fontColor=#143642;rounded=1;sketch=0;" vertex="1" parent="WIyWlLk6GJQsqaUBKTNV-1">
          <mxGeometry x="52.5" y="760" width="120" height="40" as="geometry" />
        </mxCell>
        <mxCell id="Hhn4acZgvtAK7c2JBdQD-23" value="Modify product" style="fillColor=#FAE5C7;strokeColor=none;shadow=1;fontSize=14;align=left;spacingLeft=50;fontColor=#143642;rounded=1;sketch=0;" vertex="1" parent="WIyWlLk6GJQsqaUBKTNV-1">
          <mxGeometry x="497" y="26" width="186" height="40" as="geometry" />
        </mxCell>
        <mxCell id="Hhn4acZgvtAK7c2JBdQD-24" style="edgeStyle=orthogonalEdgeStyle;rounded=1;sketch=0;orthogonalLoop=1;jettySize=auto;html=1;exitX=0.5;exitY=1;exitDx=0;exitDy=0;entryX=0.5;entryY=0;entryDx=0;entryDy=0;fontColor=#143642;strokeColor=#A8201A;fillColor=#FAE5C7;labelBackgroundColor=#DAD2D8;" edge="1" parent="WIyWlLk6GJQsqaUBKTNV-1" source="Hhn4acZgvtAK7c2JBdQD-48" target="Hhn4acZgvtAK7c2JBdQD-26">
          <mxGeometry relative="1" as="geometry">
            <mxPoint x="532.5" y="136" as="sourcePoint" />
          </mxGeometry>
        </mxCell>
        <mxCell id="Hhn4acZgvtAK7c2JBdQD-25" value="" style="edgeStyle=orthogonalEdgeStyle;rounded=1;sketch=0;orthogonalLoop=1;jettySize=auto;html=1;fontColor=#143642;strokeColor=#A8201A;fillColor=#FAE5C7;labelBackgroundColor=#DAD2D8;" edge="1" parent="WIyWlLk6GJQsqaUBKTNV-1" source="Hhn4acZgvtAK7c2JBdQD-26" target="Hhn4acZgvtAK7c2JBdQD-28">
          <mxGeometry relative="1" as="geometry" />
        </mxCell>
        <mxCell id="Hhn4acZgvtAK7c2JBdQD-26" value="&lt;div&gt;displayName&lt;/div&gt;&lt;div&gt;price&lt;/div&gt;&lt;div&gt;rules&lt;/div&gt;&lt;div&gt;category&lt;br&gt;&lt;/div&gt;" style="shape=parallelogram;perimeter=parallelogramPerimeter;whiteSpace=wrap;html=1;fixedSize=1;rounded=1;sketch=0;fontColor=#143642;strokeColor=#0F8B8D;fillColor=#FAE5C7;" vertex="1" parent="WIyWlLk6GJQsqaUBKTNV-1">
          <mxGeometry x="460" y="175" width="145" height="103" as="geometry" />
        </mxCell>
        <mxCell id="Hhn4acZgvtAK7c2JBdQD-27" value="" style="edgeStyle=orthogonalEdgeStyle;rounded=1;sketch=0;orthogonalLoop=1;jettySize=auto;html=1;fontColor=#143642;strokeColor=#A8201A;fillColor=#FAE5C7;labelBackgroundColor=#DAD2D8;" edge="1" parent="WIyWlLk6GJQsqaUBKTNV-1" source="Hhn4acZgvtAK7c2JBdQD-28" target="Hhn4acZgvtAK7c2JBdQD-33">
          <mxGeometry relative="1" as="geometry" />
        </mxCell>
        <mxCell id="Hhn4acZgvtAK7c2JBdQD-28" value="Validate fields" style="whiteSpace=wrap;html=1;fillColor=#FAE5C7;strokeColor=#0F8B8D;fontColor=#143642;rounded=1;sketch=0;" vertex="1" parent="WIyWlLk6GJQsqaUBKTNV-1">
          <mxGeometry x="472.5" y="320" width="120" height="40" as="geometry" />
        </mxCell>
        <mxCell id="Hhn4acZgvtAK7c2JBdQD-29" value="" style="edgeStyle=orthogonalEdgeStyle;rounded=1;sketch=0;orthogonalLoop=1;jettySize=auto;html=1;fontColor=#143642;strokeColor=#A8201A;fillColor=#FAE5C7;labelBackgroundColor=#DAD2D8;" edge="1" parent="WIyWlLk6GJQsqaUBKTNV-1" source="Hhn4acZgvtAK7c2JBdQD-33" target="Hhn4acZgvtAK7c2JBdQD-35">
          <mxGeometry relative="1" as="geometry" />
        </mxCell>
        <mxCell id="Hhn4acZgvtAK7c2JBdQD-30" value="Yes" style="edgeLabel;align=center;verticalAlign=middle;resizable=0;points=[];fontColor=#143642;labelBackgroundColor=none;html=1;" vertex="1" connectable="0" parent="Hhn4acZgvtAK7c2JBdQD-29">
          <mxGeometry x="-0.2923" y="-1" relative="1" as="geometry">
            <mxPoint x="6" y="9" as="offset" />
          </mxGeometry>
        </mxCell>
        <mxCell id="Hhn4acZgvtAK7c2JBdQD-31" value="" style="edgeStyle=orthogonalEdgeStyle;rounded=1;sketch=0;orthogonalLoop=1;jettySize=auto;html=1;fontColor=#143642;strokeColor=#A8201A;fillColor=#FAE5C7;labelBackgroundColor=#DAD2D8;" edge="1" parent="WIyWlLk6GJQsqaUBKTNV-1" source="Hhn4acZgvtAK7c2JBdQD-33" target="Hhn4acZgvtAK7c2JBdQD-36">
          <mxGeometry relative="1" as="geometry" />
        </mxCell>
        <mxCell id="Hhn4acZgvtAK7c2JBdQD-32" value="No" style="edgeLabel;html=1;align=center;verticalAlign=middle;resizable=0;points=[];fontColor=#143642;labelBackgroundColor=none;" vertex="1" connectable="0" parent="Hhn4acZgvtAK7c2JBdQD-31">
          <mxGeometry x="-0.1308" y="-1" relative="1" as="geometry">
            <mxPoint x="11" as="offset" />
          </mxGeometry>
        </mxCell>
        <mxCell id="Hhn4acZgvtAK7c2JBdQD-33" value="Is there validation errors?" style="rhombus;whiteSpace=wrap;html=1;fillColor=#FAE5C7;strokeColor=#0F8B8D;fontColor=#143642;rounded=1;sketch=0;" vertex="1" parent="WIyWlLk6GJQsqaUBKTNV-1">
          <mxGeometry x="487.5" y="400" width="90" height="90" as="geometry" />
        </mxCell>
        <mxCell id="Hhn4acZgvtAK7c2JBdQD-34" style="edgeStyle=orthogonalEdgeStyle;curved=0;rounded=1;sketch=0;orthogonalLoop=1;jettySize=auto;html=1;entryX=1;entryY=0.5;entryDx=0;entryDy=0;fontColor=#143642;strokeColor=#A8201A;fillColor=#FAE5C7;" edge="1" parent="WIyWlLk6GJQsqaUBKTNV-1" source="Hhn4acZgvtAK7c2JBdQD-35" target="Hhn4acZgvtAK7c2JBdQD-48">
          <mxGeometry relative="1" as="geometry">
            <Array as="points">
              <mxPoint x="780" y="445" />
              <mxPoint x="780" y="111" />
            </Array>
          </mxGeometry>
        </mxCell>
        <mxCell id="Hhn4acZgvtAK7c2JBdQD-35" value="Show warning" style="whiteSpace=wrap;html=1;fillColor=#FAE5C7;strokeColor=#0F8B8D;fontColor=#143642;rounded=1;sketch=0;" vertex="1" parent="WIyWlLk6GJQsqaUBKTNV-1">
          <mxGeometry x="642.5" y="425" width="120" height="40" as="geometry" />
        </mxCell>
        <mxCell id="Hhn4acZgvtAK7c2JBdQD-36" value="PATCH / PUT" style="whiteSpace=wrap;html=1;fillColor=#FAE5C7;strokeColor=#0F8B8D;fontColor=#143642;rounded=1;sketch=0;" vertex="1" parent="WIyWlLk6GJQsqaUBKTNV-1">
          <mxGeometry x="472.5" y="540" width="120" height="40" as="geometry" />
        </mxCell>
        <mxCell id="Hhn4acZgvtAK7c2JBdQD-37" value="" style="edgeStyle=orthogonalEdgeStyle;rounded=1;sketch=0;orthogonalLoop=1;jettySize=auto;html=1;fontColor=#143642;strokeColor=#A8201A;fillColor=#FAE5C7;labelBackgroundColor=#DAD2D8;exitX=0.5;exitY=1;exitDx=0;exitDy=0;" edge="1" parent="WIyWlLk6GJQsqaUBKTNV-1" source="Hhn4acZgvtAK7c2JBdQD-36" target="Hhn4acZgvtAK7c2JBdQD-42">
          <mxGeometry relative="1" as="geometry">
            <mxPoint x="532.5" y="590" as="sourcePoint" />
          </mxGeometry>
        </mxCell>
        <mxCell id="Hhn4acZgvtAK7c2JBdQD-38" value="" style="edgeStyle=orthogonalEdgeStyle;rounded=1;sketch=0;orthogonalLoop=1;jettySize=auto;html=1;fontColor=#143642;strokeColor=#A8201A;fillColor=#FAE5C7;labelBackgroundColor=#DAD2D8;" edge="1" parent="WIyWlLk6GJQsqaUBKTNV-1" source="Hhn4acZgvtAK7c2JBdQD-42">
          <mxGeometry relative="1" as="geometry">
            <mxPoint x="642.5" y="665" as="targetPoint" />
          </mxGeometry>
        </mxCell>
        <mxCell id="Hhn4acZgvtAK7c2JBdQD-39" value="Yes" style="edgeLabel;align=center;verticalAlign=middle;resizable=0;points=[];fontColor=#143642;labelBackgroundColor=none;html=1;" vertex="1" connectable="0" parent="Hhn4acZgvtAK7c2JBdQD-38">
          <mxGeometry x="-0.2923" y="-1" relative="1" as="geometry">
            <mxPoint x="6" y="9" as="offset" />
          </mxGeometry>
        </mxCell>
        <mxCell id="Hhn4acZgvtAK7c2JBdQD-40" value="" style="edgeStyle=orthogonalEdgeStyle;rounded=1;sketch=0;orthogonalLoop=1;jettySize=auto;html=1;fontColor=#143642;strokeColor=#A8201A;fillColor=#FAE5C7;labelBackgroundColor=#DAD2D8;" edge="1" parent="WIyWlLk6GJQsqaUBKTNV-1" source="Hhn4acZgvtAK7c2JBdQD-42">
          <mxGeometry relative="1" as="geometry">
            <mxPoint x="532.5" y="760" as="targetPoint" />
          </mxGeometry>
        </mxCell>
        <mxCell id="Hhn4acZgvtAK7c2JBdQD-41" value="No" style="edgeLabel;html=1;align=center;verticalAlign=middle;resizable=0;points=[];fontColor=#143642;labelBackgroundColor=none;" vertex="1" connectable="0" parent="Hhn4acZgvtAK7c2JBdQD-40">
          <mxGeometry x="-0.1308" y="-1" relative="1" as="geometry">
            <mxPoint x="11" as="offset" />
          </mxGeometry>
        </mxCell>
        <mxCell id="Hhn4acZgvtAK7c2JBdQD-42" value="Is there errors?" style="rhombus;whiteSpace=wrap;html=1;fillColor=#FAE5C7;strokeColor=#0F8B8D;fontColor=#143642;rounded=1;sketch=0;" vertex="1" parent="WIyWlLk6GJQsqaUBKTNV-1">
          <mxGeometry x="475" y="620" width="115" height="90" as="geometry" />
        </mxCell>
        <mxCell id="Hhn4acZgvtAK7c2JBdQD-43" style="edgeStyle=orthogonalEdgeStyle;curved=0;rounded=1;sketch=0;orthogonalLoop=1;jettySize=auto;html=1;entryX=1;entryY=0.5;entryDx=0;entryDy=0;fontColor=#143642;strokeColor=#A8201A;fillColor=#FAE5C7;" edge="1" parent="WIyWlLk6GJQsqaUBKTNV-1" source="Hhn4acZgvtAK7c2JBdQD-44" target="Hhn4acZgvtAK7c2JBdQD-48">
          <mxGeometry relative="1" as="geometry">
            <Array as="points">
              <mxPoint x="780" y="665" />
              <mxPoint x="780" y="111" />
            </Array>
          </mxGeometry>
        </mxCell>
        <mxCell id="Hhn4acZgvtAK7c2JBdQD-44" value="Show warning" style="whiteSpace=wrap;html=1;fillColor=#FAE5C7;strokeColor=#0F8B8D;fontColor=#143642;rounded=1;sketch=0;" vertex="1" parent="WIyWlLk6GJQsqaUBKTNV-1">
          <mxGeometry x="642.5" y="645" width="120" height="40" as="geometry" />
        </mxCell>
        <mxCell id="Hhn4acZgvtAK7c2JBdQD-45" style="edgeStyle=orthogonalEdgeStyle;curved=0;rounded=1;sketch=0;orthogonalLoop=1;jettySize=auto;html=1;exitX=0.5;exitY=1;exitDx=0;exitDy=0;entryX=0.5;entryY=0;entryDx=0;entryDy=0;fontColor=#143642;strokeColor=#A8201A;fillColor=#FAE5C7;" edge="1" parent="WIyWlLk6GJQsqaUBKTNV-1" source="Hhn4acZgvtAK7c2JBdQD-46" target="Hhn4acZgvtAK7c2JBdQD-49">
          <mxGeometry relative="1" as="geometry" />
        </mxCell>
        <mxCell id="Hhn4acZgvtAK7c2JBdQD-46" value="Let user know" style="whiteSpace=wrap;html=1;fillColor=#FAE5C7;strokeColor=#0F8B8D;fontColor=#143642;rounded=1;sketch=0;" vertex="1" parent="WIyWlLk6GJQsqaUBKTNV-1">
          <mxGeometry x="475" y="760" width="120" height="40" as="geometry" />
        </mxCell>
        <mxCell id="Hhn4acZgvtAK7c2JBdQD-47" value="Delete product" style="fillColor=#FAE5C7;strokeColor=none;shadow=1;fontSize=14;align=left;spacingLeft=50;fontColor=#143642;rounded=1;sketch=0;" vertex="1" parent="WIyWlLk6GJQsqaUBKTNV-1">
          <mxGeometry x="900" y="26" width="186" height="40" as="geometry" />
        </mxCell>
        <mxCell id="Hhn4acZgvtAK7c2JBdQD-48" value="Start" style="ellipse;whiteSpace=wrap;html=1;rounded=0;sketch=0;fontColor=#143642;strokeColor=#0F8B8D;fillColor=#FAE5C7;" vertex="1" parent="WIyWlLk6GJQsqaUBKTNV-1">
          <mxGeometry x="507.5" y="86" width="50" height="50" as="geometry" />
        </mxCell>
        <mxCell id="Hhn4acZgvtAK7c2JBdQD-49" value="End" style="ellipse;whiteSpace=wrap;html=1;rounded=0;sketch=0;fontColor=#143642;strokeColor=#0F8B8D;fillColor=#FAE5C7;" vertex="1" parent="WIyWlLk6GJQsqaUBKTNV-1">
          <mxGeometry x="510" y="840" width="50" height="50" as="geometry" />
        </mxCell>
        <mxCell id="Hhn4acZgvtAK7c2JBdQD-50" value="Start" style="ellipse;whiteSpace=wrap;html=1;rounded=0;sketch=0;fontColor=#143642;strokeColor=#0F8B8D;fillColor=#FAE5C7;" vertex="1" parent="WIyWlLk6GJQsqaUBKTNV-1">
          <mxGeometry x="85" y="86" width="50" height="50" as="geometry" />
        </mxCell>
        <mxCell id="Hhn4acZgvtAK7c2JBdQD-51" style="edgeStyle=orthogonalEdgeStyle;curved=0;rounded=1;sketch=0;orthogonalLoop=1;jettySize=auto;html=1;entryX=0.5;entryY=0;entryDx=0;entryDy=0;fontColor=#143642;strokeColor=#A8201A;fillColor=#FAE5C7;exitX=0.478;exitY=1.006;exitDx=0;exitDy=0;exitPerimeter=0;" edge="1" parent="WIyWlLk6GJQsqaUBKTNV-1" source="Hhn4acZgvtAK7c2JBdQD-22" target="Hhn4acZgvtAK7c2JBdQD-52">
          <mxGeometry relative="1" as="geometry">
            <mxPoint x="110" y="810" as="sourcePoint" />
          </mxGeometry>
        </mxCell>
        <mxCell id="Hhn4acZgvtAK7c2JBdQD-52" value="End" style="ellipse;whiteSpace=wrap;html=1;rounded=0;sketch=0;fontColor=#143642;strokeColor=#0F8B8D;fillColor=#FAE5C7;" vertex="1" parent="WIyWlLk6GJQsqaUBKTNV-1">
          <mxGeometry x="85" y="840" width="50" height="50" as="geometry" />
        </mxCell>
        <mxCell id="Hhn4acZgvtAK7c2JBdQD-53" style="edgeStyle=orthogonalEdgeStyle;curved=0;rounded=1;sketch=0;orthogonalLoop=1;jettySize=auto;html=1;entryX=0.504;entryY=0.03;entryDx=0;entryDy=0;fontColor=#143642;strokeColor=#A8201A;fillColor=#FAE5C7;entryPerimeter=0;" edge="1" parent="WIyWlLk6GJQsqaUBKTNV-1" source="Hhn4acZgvtAK7c2JBdQD-54" target="Hhn4acZgvtAK7c2JBdQD-59">
          <mxGeometry relative="1" as="geometry">
            <mxPoint x="945" y="175" as="targetPoint" />
          </mxGeometry>
        </mxCell>
        <mxCell id="Hhn4acZgvtAK7c2JBdQD-54" value="Start" style="ellipse;whiteSpace=wrap;html=1;rounded=0;sketch=0;fontColor=#143642;strokeColor=#0F8B8D;fillColor=#FAE5C7;" vertex="1" parent="WIyWlLk6GJQsqaUBKTNV-1">
          <mxGeometry x="920" y="86" width="50" height="50" as="geometry" />
        </mxCell>
        <mxCell id="Hhn4acZgvtAK7c2JBdQD-55" value="" style="edgeStyle=orthogonalEdgeStyle;rounded=1;sketch=0;orthogonalLoop=1;jettySize=auto;html=1;fontColor=#143642;strokeColor=#A8201A;fillColor=#FAE5C7;labelBackgroundColor=#DAD2D8;exitX=0.953;exitY=0.497;exitDx=0;exitDy=0;exitPerimeter=0;entryX=1;entryY=0.5;entryDx=0;entryDy=0;" edge="1" parent="WIyWlLk6GJQsqaUBKTNV-1" source="Hhn4acZgvtAK7c2JBdQD-59" target="Hhn4acZgvtAK7c2JBdQD-64">
          <mxGeometry relative="1" as="geometry">
            <mxPoint x="1060" y="216" as="targetPoint" />
            <Array as="points">
              <mxPoint x="1070" y="204" />
              <mxPoint x="1070" y="445" />
            </Array>
          </mxGeometry>
        </mxCell>
        <mxCell id="Hhn4acZgvtAK7c2JBdQD-56" value="No" style="edgeLabel;align=center;verticalAlign=middle;resizable=0;points=[];fontColor=#143642;labelBackgroundColor=none;html=1;" vertex="1" connectable="0" parent="Hhn4acZgvtAK7c2JBdQD-55">
          <mxGeometry x="-0.2923" y="-1" relative="1" as="geometry">
            <mxPoint x="-9" y="49" as="offset" />
          </mxGeometry>
        </mxCell>
        <mxCell id="Hhn4acZgvtAK7c2JBdQD-57" value="" style="edgeStyle=orthogonalEdgeStyle;rounded=1;sketch=0;orthogonalLoop=1;jettySize=auto;html=1;fontColor=#143642;strokeColor=#A8201A;fillColor=#FAE5C7;labelBackgroundColor=#DAD2D8;exitX=0.497;exitY=0.961;exitDx=0;exitDy=0;exitPerimeter=0;entryX=0.5;entryY=0;entryDx=0;entryDy=0;" edge="1" parent="WIyWlLk6GJQsqaUBKTNV-1" source="Hhn4acZgvtAK7c2JBdQD-59" target="Hhn4acZgvtAK7c2JBdQD-63">
          <mxGeometry relative="1" as="geometry">
            <mxPoint x="945" y="300" as="targetPoint" />
            <mxPoint x="945" y="260" as="sourcePoint" />
          </mxGeometry>
        </mxCell>
        <mxCell id="Hhn4acZgvtAK7c2JBdQD-58" value="Yes" style="edgeLabel;html=1;align=center;verticalAlign=middle;resizable=0;points=[];fontColor=#143642;labelBackgroundColor=none;" vertex="1" connectable="0" parent="Hhn4acZgvtAK7c2JBdQD-57">
          <mxGeometry x="-0.1308" y="-1" relative="1" as="geometry">
            <mxPoint x="16" as="offset" />
          </mxGeometry>
        </mxCell>
        <mxCell id="Hhn4acZgvtAK7c2JBdQD-59" value="Delete product?" style="rhombus;whiteSpace=wrap;html=1;fillColor=#FAE5C7;strokeColor=#0F8B8D;fontColor=#143642;rounded=1;sketch=0;" vertex="1" parent="WIyWlLk6GJQsqaUBKTNV-1">
          <mxGeometry x="887.5" y="170" width="115" height="68.5" as="geometry" />
        </mxCell>
        <mxCell id="Hhn4acZgvtAK7c2JBdQD-60" style="edgeStyle=orthogonalEdgeStyle;curved=0;rounded=1;sketch=0;orthogonalLoop=1;jettySize=auto;html=1;exitX=0.5;exitY=1;exitDx=0;exitDy=0;entryX=0.5;entryY=0;entryDx=0;entryDy=0;fontColor=#143642;strokeColor=#A8201A;fillColor=#FAE5C7;" edge="1" parent="WIyWlLk6GJQsqaUBKTNV-1" source="Hhn4acZgvtAK7c2JBdQD-61" target="Hhn4acZgvtAK7c2JBdQD-64">
          <mxGeometry relative="1" as="geometry" />
        </mxCell>
        <mxCell id="Hhn4acZgvtAK7c2JBdQD-61" value="Product deleted" style="shape=parallelogram;perimeter=parallelogramPerimeter;whiteSpace=wrap;html=1;fixedSize=1;rounded=1;sketch=0;fontColor=#143642;strokeColor=#0F8B8D;fillColor=#FAE5C7;" vertex="1" parent="WIyWlLk6GJQsqaUBKTNV-1">
          <mxGeometry x="872.5" y="350" width="145" height="33" as="geometry" />
        </mxCell>
        <mxCell id="Hhn4acZgvtAK7c2JBdQD-62" style="edgeStyle=orthogonalEdgeStyle;curved=0;rounded=1;sketch=0;orthogonalLoop=1;jettySize=auto;html=1;entryX=0.5;entryY=0;entryDx=0;entryDy=0;fontColor=#143642;strokeColor=#A8201A;fillColor=#FAE5C7;" edge="1" parent="WIyWlLk6GJQsqaUBKTNV-1" source="Hhn4acZgvtAK7c2JBdQD-63" target="Hhn4acZgvtAK7c2JBdQD-61">
          <mxGeometry relative="1" as="geometry" />
        </mxCell>
        <mxCell id="Hhn4acZgvtAK7c2JBdQD-63" value="DELETE" style="whiteSpace=wrap;html=1;fillColor=#FAE5C7;strokeColor=#0F8B8D;fontColor=#143642;rounded=1;sketch=0;" vertex="1" parent="WIyWlLk6GJQsqaUBKTNV-1">
          <mxGeometry x="885" y="270" width="120" height="40" as="geometry" />
        </mxCell>
        <mxCell id="Hhn4acZgvtAK7c2JBdQD-64" value="End" style="ellipse;whiteSpace=wrap;html=1;rounded=0;sketch=0;fontColor=#143642;strokeColor=#0F8B8D;fillColor=#FAE5C7;" vertex="1" parent="WIyWlLk6GJQsqaUBKTNV-1">
          <mxGeometry x="920" y="420" width="50" height="50" as="geometry" />
        </mxCell>
      </root>
    </mxGraphModel>
  </diagram>
</mxfile>
